<svg width="500" height="500" viewBox="0 0 500 500" fill="none" xmlns="http://www.w3.org/2000/svg">
<path fill-rule="evenodd" clip-rule="evenodd" d="M500 250.594C500 297.339 487.232 341.094 465 378.547V255.361V239.927L451.202 233.011L261.702 138.03L250.5 132.416L239.298 138.03L49.7979 233.011L36 239.927V255.361V380.217C13.1518 342.397 0 298.035 0 250.594C0 112.195 111.929 0 250 0C388.071 0 500 112.195 500 250.594ZM415 295.856V438.861C376.969 472.377 328.698 494.498 275.5 499.9V365.776L415 295.856ZM225.5 365.776V500C172.372 494.82 124.115 472.971 86 439.738V295.856L225.5 365.776Z" fill="#141414"/>
</svg>
